<svg xmlns="http://www.w3.org/2000/svg" width="320" height="80" viewBox="0 0 320 80" preserveAspectRatio="xMidYMid meet">
  <defs>
    <linearGradient id="gt" x1="0%" x2="100%" y1="0%" y2="100%">
      <stop stop-color="#4aa3a2" offset="0%"/>
      <stop stop-color="#6bc7c1" offset="100%"/>
    </linearGradient>
    <pattern id="stitch" width="18" height="12" patternUnits="userSpaceOnUse" patternTransform="rotate(-6)">
      <rect x="0" y="5" width="8" height="2" fill="#3c8a8a" opacity="0.5" rx="1"/>
      <rect x="10" y="5" width="6" height="2" fill="#3c8a8a" opacity="0.4" rx="1"/>
    </pattern>
  </defs>
  <path d="M12 12 C40 18 72 6 102 16 C132 26 166 10 198 18 C230 26 260 10 286 16 C302 20 310 26 314 36 L314 50 C304 62 288 72 262 66 C236 60 208 74 180 66 C152 58 128 76 100 68 C72 60 46 78 28 66 C14 58 10 54 10 44 Z" fill="url(#gt)" opacity="0.9"/>
  <path d="M12 12 C40 18 72 6 102 16 C132 26 166 10 198 18 C230 26 260 10 286 16 C302 20 310 26 314 36 L314 50 C304 62 288 72 262 66 C236 60 208 74 180 66 C152 58 128 76 100 68 C72 60 46 78 28 66 C14 58 10 54 10 44 Z" fill="url(#stitch)" opacity="0.35"/>
</svg>

