<svg xmlns="http://www.w3.org/2000/svg" width="320" height="80" viewBox="0 0 320 80" preserveAspectRatio="xMidYMid meet">
  <defs>
    <linearGradient id="g" x1="0%" x2="100%" y1="0%" y2="100%">
      <stop stop-color="#f6d447" offset="0%"/>
      <stop stop-color="#f9e27a" offset="100%"/>
    </linearGradient>
    <pattern id="dots" width="16" height="16" patternUnits="userSpaceOnUse">
      <circle cx="4" cy="4" r="1.2" fill="#f0c936" opacity="0.6"/>
      <circle cx="12" cy="12" r="1" fill="#f0c936" opacity="0.4"/>
    </pattern>
  </defs>
  <path d="M10 10 C40 22 70 4 100 14 C130 24 160 8 190 16 C220 24 250 6 280 12 C300 16 310 22 314 32 L314 48 C304 58 292 70 270 64 C248 58 224 70 198 64 C172 58 148 70 120 62 C92 54 70 70 44 64 C28 60 18 56 10 48 Z" fill="url(#g)" opacity="0.9"/>
  <path d="M10 10 C40 22 70 4 100 14 C130 24 160 8 190 16 C220 24 250 6 280 12 C300 16 310 22 314 32 L314 48 C304 58 292 70 270 64 C248 58 224 70 198 64 C172 58 148 70 120 62 C92 54 70 70 44 64 C28 60 18 56 10 48 Z" fill="url(#dots)" opacity="0.35"/>
</svg>
